HIERARCHY
ROOT Hips
{
	OFFSET 0.000000 88.474243 0.000000
	CHANNELS 6 Xposition Yposition Zposition Zrotation Yrotation Xrotation 
	JOINT Hips_Spine
	{
		OFFSET 0.000000 0.000000 0.000000
		CHANNELS 3 Zrotation Yrotation Xrotation
		JOINT Spine
		{
			OFFSET 0.005100 8.711998 -0.691000
			CHANNELS 3 Zrotation Yrotation Xrotation
			JOINT Spine1
			{
				OFFSET -0.009200 8.660301 -1.275000
				CHANNELS 3 Zrotation Yrotation Xrotation
				JOINT Spine2
				{
					OFFSET 0.006300 9.852501 -1.857000
					CHANNELS 3 Zrotation Yrotation Xrotation
					JOINT Spine2_Neck
					{
						OFFSET 0.000000 0.000000 0.000000
						CHANNELS 3 Zrotation Yrotation Xrotation
						JOINT Neck
						{
							OFFSET 0.016300 11.420799 -0.263300
							CHANNELS 3 Zrotation Yrotation Xrotation
							End Site #name: Head
							{
								OFFSET -0.019200 9.262405 2.362500
							}
						}
					}
					JOINT Spine2_LeftShoulder
					{
						OFFSET 0.000000 0.000000 0.000000
						CHANNELS 3 Zrotation Yrotation Xrotation
						JOINT LeftShoulder
						{
							OFFSET 5.616900 6.732201 -0.345700
							CHANNELS 3 Zrotation Yrotation Xrotation
							JOINT LeftArm
							{
								OFFSET 10.664888 -0.183372 -2.440700
								CHANNELS 3 Zrotation Yrotation Xrotation
								JOINT LeftForeArm
								{
									OFFSET 27.459126 0.000000 0.000000
									CHANNELS 3 Zrotation Yrotation Xrotation
									End Site #name: LeftHand
									{
										OFFSET 21.306858 0.000000 0.000000
									}
								}
							}
						}
					}
					JOINT Spine2_RightShoulder
					{
						OFFSET 0.000000 0.000000 0.000000
						CHANNELS 3 Zrotation Yrotation Xrotation
						JOINT RightShoulder
						{
							OFFSET -5.580300 6.737503 -0.344400
							CHANNELS 3 Zrotation Yrotation Xrotation
							JOINT RightArm
							{
								OFFSET -10.679335 -0.188484 -2.383900
								CHANNELS 3 Zrotation Yrotation Xrotation
								JOINT RightForeArm
								{
									OFFSET -27.503529 0.000000 0.000000
									CHANNELS 3 Zrotation Yrotation Xrotation
									End Site #name: RightHand
									{
										OFFSET -21.306808 0.000000 0.000000
									}
								}
							}
						}
					}
				}
			}
		}
	}
	JOINT Hips_LeftUpLeg
	{
		OFFSET 0.000000 0.000000 0.000000
		CHANNELS 3 Zrotation Yrotation Xrotation
		JOINT LeftUpLeg
		{
			OFFSET 6.857700 -6.739601 0.312100
			CHANNELS 3 Zrotation Yrotation Xrotation
			JOINT LeftLeg
			{
				OFFSET -0.367590 -34.731552 -4.572400
				CHANNELS 3 Zrotation Yrotation Xrotation
				End Site #name: LeftFoot
				{
					OFFSET 0.367590 -34.656704 -6.067400
				}
			}
		}
	}
	JOINT Hips_RightUpLeg
	{
		OFFSET 0.000000 0.000000 0.000000
		CHANNELS 3 Zrotation Yrotation Xrotation
		JOINT RightUpLeg
		{
			OFFSET -6.876100 -6.733299 0.301000
			CHANNELS 3 Zrotation Yrotation Xrotation
			JOINT RightLeg
			{
				OFFSET 0.347353 -34.795158 -4.515900
				CHANNELS 3 Zrotation Yrotation Xrotation
				End Site #name: RightFoot
				{
					OFFSET -0.347353 -34.589367 -6.070300
				}
			}
		}
	}
}
MOTION
Frames: 12
Frame Time: 0.041667
-0.067885 0.072111 0.059697 -3.600452 0.548124 -5.175796 -0.000000 0.000000 0.000000 -0.515216 0.880722 5.951487 -1.289909 1.255563 9.671154 0.000000 0.000000 0.000000 -1.751386 0.941725 9.275861 -0.856312 -3.562175 3.861438 -1.717802 0.961735 9.537873 -1.289624 -1.390502 0.181667 -68.492271 -23.783671 17.434651 116.064083 -88.380573 -116.759745 -1.357023 1.655551 10.101565 -4.948556 -0.214143 1.821625 76.631427 1.694669 7.984030 170.728688 85.879666 172.379280 0.000000 -0.000000 0.000000 6.985470 1.168766 -18.669981 -1.393363 0.676902 33.738357 0.000000 0.000000 -0.000000 -4.303779 -2.585419 -15.047362 -0.773087 -2.404837 27.668299 
-0.009006 0.121733 0.200557 -4.373083 -1.798452 -4.801358 -0.000000 0.000000 0.000000 -0.667961 0.396212 5.714053 -1.888777 1.315222 10.123371 0.000000 0.000000 0.000000 -1.832696 1.312202 10.070082 -1.568473 -4.025807 4.747974 -1.923070 1.302160 10.343676 0.237209 0.957386 -0.208692 -69.283608 -22.436446 28.998795 177.262545 -83.366549 -177.566529 -1.662403 1.238529 9.818533 -5.369252 -2.793705 0.694496 83.658844 -8.200305 4.834079 -170.132650 85.434723 -170.361458 0.000000 -0.000000 0.000000 7.605885 0.702238 -21.991199 -0.507616 1.448042 32.101436 0.000000 0.000000 0.000000 -3.204694 -3.376735 -15.542238 0.541387 -0.945145 27.019401 
0.185157 0.113184 0.182052 -4.403307 -5.020019 -3.859740 -0.000000 0.000000 0.000000 -0.838571 0.415648 5.423328 -2.200311 1.379692 10.417628 0.000000 0.000000 0.000000 -2.202016 1.514086 10.663395 -1.686070 -3.620644 4.448571 -1.846663 1.476086 10.357537 0.700147 0.662353 -0.217227 -70.694530 -18.341956 32.702191 -178.758219 -81.136099 178.383333 -1.923458 1.465454 9.804579 -4.142907 -2.119834 0.713520 81.652743 -9.984199 8.157248 -160.952268 87.354083 -161.172145 0.000000 -0.000000 0.000000 7.872504 0.894506 -22.567040 -0.856466 0.570073 34.560177 0.000000 0.000000 0.000000 -3.296653 -3.736316 -16.828861 0.722308 -1.133009 27.010500 
0.322113 0.079057 0.193074 -4.427255 -6.746022 -3.090443 -0.000000 0.000000 0.000000 -0.772954 0.569983 5.091777 -2.098137 1.564673 10.283974 0.000000 0.000000 0.000000 -2.012670 1.625692 10.046326 -1.756582 -3.830888 4.918798 -1.841603 1.590945 10.259860 1.487676 0.267358 0.067318 -70.813483 -17.361344 33.090769 -178.337472 -80.239980 178.145378 -1.994215 1.653802 9.562530 -4.198304 -1.178121 1.078517 79.303227 -9.622437 9.901746 -165.446576 85.568258 -165.976245 0.000000 -0.000000 0.000000 7.545126 0.811979 -23.004900 -1.223200 0.373003 34.567015 0.000000 0.000000 0.000000 -2.936598 -3.609317 -17.572827 0.673834 -0.652986 27.081805 
0.398546 0.059257 0.280838 -4.854037 -6.322517 -2.592861 -0.000000 -0.000000 0.000000 -0.682694 0.609962 5.117500 -1.943383 1.583521 9.787111 0.000000 0.000000 0.000000 -1.902717 1.597291 9.541219 -1.644944 -3.877694 5.312608 -1.811537 1.595620 9.989300 1.856926 0.197221 0.258348 -71.085060 -17.638630 32.145459 -177.302573 -82.138566 177.250057 -1.959193 1.650026 9.520629 -4.648401 -1.534543 1.251278 78.842833 -9.034623 9.798767 -160.265506 86.010700 -160.989600 0.000000 -0.000000 0.000000 7.302118 1.181104 -22.873417 -1.266562 0.475243 33.784062 0.000000 0.000000 0.000000 -2.535026 -3.566447 -17.662005 0.644431 -0.414481 26.395372 
0.479861 0.044407 0.376960 -5.195154 -5.457126 -2.519152 -0.000000 -0.000000 0.000000 -0.603036 0.648332 5.103104 -1.813943 1.529268 9.454240 0.000000 0.000000 0.000000 -1.820575 1.494522 9.303774 -1.389189 -3.816059 5.370675 -1.765251 1.523167 9.728847 2.011383 0.434579 0.335821 -71.361147 -18.299727 30.964292 -175.762024 -83.697735 175.661034 -1.891983 1.580748 9.521445 -4.569154 -1.999598 1.344542 79.465822 -8.550771 8.363360 -160.839568 85.864573 -161.587415 0.000000 -0.000000 0.000000 7.181602 1.415079 -22.555127 -1.231999 0.625960 33.196548 0.000000 -0.000000 0.000000 -2.393190 -3.461035 -17.205871 0.483164 -0.519559 25.618220 
0.571552 0.042953 0.471494 -5.318110 -4.928503 -2.563194 -0.000000 -0.000000 0.000000 -0.590499 0.631554 5.044657 -1.736977 1.517728 9.421905 0.000000 0.000000 0.000000 -1.780023 1.402028 9.300071 -1.117114 -3.677680 5.279960 -1.746265 1.459093 9.570812 1.990857 0.644871 0.336662 -71.500375 -19.153917 29.598944 -175.435205 -83.962976 175.370373 -1.789193 1.512631 9.560266 -4.259275 -2.382936 1.243378 79.874992 -8.520908 7.151219 -163.316648 85.630514 -163.944850 0.000000 -0.000000 0.000000 6.903609 1.514839 -22.155664 -1.191366 0.665809 32.739700 0.000000 -0.000000 0.000000 -2.618743 -3.327933 -16.613763 0.455989 -0.666987 25.092371 
0.673934 0.048675 0.553664 -5.301375 -4.796182 -2.501326 -0.000000 -0.000000 0.000000 -0.582147 0.614118 5.010518 -1.708733 1.522510 9.491987 0.000000 0.000000 0.000000 -1.766228 1.359441 9.381440 -0.855123 -3.545645 5.170516 -1.720943 1.434311 9.522958 2.003239 0.694055 0.330864 -71.728195 -19.729704 28.664164 -176.160071 -83.907286 176.083725 -1.695808 1.489800 9.570312 -4.073555 -2.558935 1.155945 79.706393 -8.559185 6.494695 -164.644432 85.739665 -165.130402 0.000000 -0.000000 0.000000 6.620059 1.540922 -21.981019 -1.111285 0.673543 32.717433 -0.000000 -0.000000 0.000000 -2.968861 -3.239669 -16.218700 0.487271 -0.802702 24.945896 
0.786068 0.054873 0.611210 -5.158544 -4.971428 -2.303267 -0.000000 -0.000000 0.000000 -0.564779 0.582852 4.999469 -1.680359 1.537373 9.568174 0.000000 0.000000 0.000000 -1.727717 1.354642 9.400921 -0.507304 -3.090539 4.931123 -1.679728 1.427166 9.510520 2.043110 0.595338 0.341458 -71.966192 -19.949832 28.445329 -176.776500 -83.870294 176.671804 -1.619775 1.502143 9.553368 -4.091021 -2.549586 1.096493 79.277697 -8.214839 6.446662 -165.871714 85.901922 -166.221691 0.000000 -0.000000 0.000000 6.429825 1.457157 -21.898680 -1.068301 0.640625 32.826003 -0.000000 -0.000000 0.000000 -3.306849 -3.110031 -16.096989 0.512478 -0.912115 25.031775 
0.909876 0.056280 0.642349 -5.035676 -5.379453 -2.106748 -0.000000 -0.000000 0.000000 -0.551529 0.537844 4.986366 -1.649273 1.556104 9.600692 0.000000 0.000000 0.000000 -1.676156 1.368777 9.381305 -0.133775 -2.452132 4.495733 -1.634504 1.427013 9.504024 2.111394 0.553987 0.344277 -72.187792 -19.913390 28.745921 -177.066499 -83.954594 176.947776 -1.557524 1.516557 9.531631 -4.131339 -2.341571 1.078687 78.807654 -7.746911 6.793447 -166.529608 86.102663 -166.804443 0.000000 -0.000000 0.000000 6.285650 1.327471 -21.827372 -1.074636 0.578638 32.887983 -0.000000 -0.000000 0.000000 -3.580112 -3.039779 -16.130229 0.541088 -1.002193 25.125900 
1.042371 0.055986 0.661172 -4.922854 -5.853469 -1.960825 -0.000000 -0.000000 0.000000 -0.539329 0.496492 4.947929 -1.610115 1.559281 9.553319 0.000000 0.000000 0.000000 -1.612969 1.388429 9.347191 0.227932 -1.768197 4.012304 -1.585441 1.429589 9.501221 2.223293 0.563649 0.357583 -72.514844 -19.534652 29.259169 -177.484223 -84.034208 177.383925 -1.512220 1.523305 9.493948 -4.248148 -2.090222 1.104060 78.572083 -7.387988 7.158820 -167.150776 86.224149 -167.381279 0.000000 -0.000000 0.000000 6.185869 1.216599 -21.784805 -1.105636 0.527068 32.905699 -0.000000 -0.000000 0.000000 -3.760762 -2.989063 -16.161460 0.510620 -1.099768 25.061889 
1.174249 0.059808 0.685169 -4.834482 -6.271532 -1.872962 -0.000000 -0.000000 0.000000 -0.520507 0.470865 4.885391 -1.562514 1.546222 9.472254 0.000000 0.000000 0.000000 -1.546340 1.410692 9.313720 0.603892 -1.145312 3.654348 -1.538307 1.433351 9.497656 2.380586 0.639441 0.376855 -72.930118 -18.984967 29.832211 -177.769160 -83.895694 177.706436 -1.476212 1.521411 9.458625 -4.367377 -1.806407 1.148124 78.569326 -7.340907 7.350038 -168.184088 86.154204 -168.403342 0.000000 -0.000000 0.000000 6.106974 1.145596 -21.714684 -1.137886 0.492067 32.854632 -0.000000 -0.000000 0.000000 -3.833426 -2.929043 -16.143955 0.507255 -1.112350 24.862929 
